<?xml version="1.0" encoding="utf-8"?>
<!-- Generator: Adobe Illustrator 22.1.0, SVG Export Plug-In . SVG Version: 6.00 Build 0)  -->
<svg version="1.1" id="Layer_1" xmlns="http://www.w3.org/2000/svg" xmlns:xlink="http://www.w3.org/1999/xlink" x="0px" y="0px"
	 viewBox="0 0 1080 1350" style="enable-background:new 0 0 1080 1350;" xml:space="preserve">
<style type="text/css">
	.st0{fill:#4b39ef;}
</style>
<g>
	<path class="st0" d="M163,678.4c0-208.9,169.4-378.3,378.4-378.4c209-0.1,378.7,169.6,378.6,378.6
		c-0.1,209.1-169.9,378.7-378.9,378.4C332.1,1056.7,163,887.4,163,678.4z M539.1,856.8c0,0.1,0,0.2,0,0.4c11.3,0,22.7,0.1,34,0
		c26-0.3,34.6-7.4,40.1-33c6.5-30.7,17.1-59.8,33.7-86.6c7.2-11.6,15.7-22.4,22-34.5c27.1-52,11.7-122.5-35-161.4
		c-32-26.6-69.4-35.3-110.3-31.9c-103.4,8.6-159,128.4-99.7,211.6c22.9,32.1,37.9,67.5,45.1,106.3c3.6,19.6,14.6,28.7,34.6,29
		C515.4,856.9,527.2,856.8,539.1,856.8z M487.3,877.4c5.4,7.4,12.3,10.1,21.2,10c21.8-0.4,43.6-0.4,65.3,0
		c9.4,0.2,15.1-4.4,19.9-10.9c-4.4-8.5-11.1-11-20.2-10.8c-20.9,0.6-41.9,0.7-62.8,0c-10.2-0.3-17.8,2.5-23.1,11.1
		C487.6,877,487.5,877.2,487.3,877.4z M494.6,907.1c5.2,5.8,11.3,9.2,19.5,9c18.1-0.3,36.3-0.3,54.4,0c8.1,0.2,14.1-2.7,18.3-9.6
		c-3.7-6.8-9-10-17.3-9.7c-18.6,0.6-37.3,0.6-55.9,0C504.9,896.6,499.2,900.1,494.6,907.1z M424.2,521.7c-1.7-3.3-2.6-6.5-4.7-8.6
		c-13.5-13.9-27.2-27.5-40.8-41.2c-1.4-1.4-3.1-2.7-4.9-3.2c-1.6-0.5-3.9-0.6-5.3,0.2c-7.2,4.1-8.2,11.1-2.5,17.4
		c4.6,5.1,9.3,10,14.1,14.8c8.7,8.7,17.6,17.3,26.5,25.8c4,3.8,8.8,2.8,13.1,0.9C421.5,527.1,422.4,524.2,424.2,521.7z M364.8,823.1
		c10,1.3,18.4-1.3,25-9.1c2.3-2.6,5.2-4.7,7.5-7.3c8.8-9.7,17.7-19.3,26.2-29.3c2.6-3-1.2-10.8-5.2-11.1c-5.2-0.3-10.3,0.2-14.3,4.3
		c-10,10-19.9,20.1-30.1,29.8C367.2,806.7,363.8,813.9,364.8,823.1z M710,468.3c-2.3,1.2-4.8,2.1-6.8,3.6c-2.7,2.1-5.2,4.7-7.6,7.2
		c-11.4,11.4-22.8,22.8-34.1,34.4c-3.8,3.9-4.2,11.6-1,14.6c4.5,4.2,9.6,4,14.4-1c14-14.2,27.9-28.5,42-42.7c3.6-3.6,1.9-7,0.6-10.5
		C716.3,470.5,714.1,468.7,710,468.3z M540.6,478c6.9-5.6,11.4-12.2,11.1-21.7c-0.3-12.5-0.5-24.9-0.1-37.4
		c0.3-9.2-3.7-15.4-12.7-20.4c-2.7,4.1-7.5,8.3-7.8,12.7c-1.1,15.4-0.3,30.9-0.8,46.4C530,466.4,533,473,540.6,478z M716.9,822.9
		c1.4-9-2-15.7-8.3-21.5c-6-5.5-11.3-11.7-17.2-17.3c-6.7-6.4-13.7-12.6-20.8-18.5c-3.2-2.6-10.6,0.7-11.2,4.9
		c-0.7,4.9-0.2,9.6,3.6,13.4c11.2,11.1,22.6,22.1,33.3,33.7C702.4,824.2,709,825.2,716.9,822.9z M790.2,648
		c-4.3-3.6-6.5-9.9-13.4-10c-15.8-0.2-31.6,0.2-47.4-0.4c-9.1-0.4-14.6,3.8-18.9,10.8c5.3,6.5,11.8,10.4,20.6,10.1
		c12.6-0.3,25.3-0.3,37.9,0C778,658.8,784.6,655.1,790.2,648z M292.3,647.5c6.7,9.6,16.1,11.8,26.9,11.2c9.3-0.5,18.6-0.4,27.9,0
		c10.2,0.4,18.5-2.8,25.1-12.7c-5-2.7-9.8-7.3-14.9-7.6c-15-1.1-30.2-0.1-45.3-0.7C303.2,637.2,297,640.6,292.3,647.5z M573.4,926.4
		c-22.3,0-44.3,0-66.3,0c0.7,11.5,15.6,21.2,33.1,21.7C555.8,948.6,571.9,938.3,573.4,926.4z"/>
	<path class="st0" d="M498,829.8c-2.4-3.9-5.3-7.6-7-11.8c-5.2-12.8-9.7-25.9-14.8-38.7c-9.9-25-22.8-48.5-36.7-71.5
		c-15.4-25.5-23-53.1-17-82.8c9.4-46.8,38.5-76.7,83.5-90.5c64.3-19.7,123.4,18,144.6,61.6c14.6,30,12.4,60.1,0.7,90.1
		c-3,7.9-7.1,15.5-11.8,22.5c-22.1,33.8-38.9,69.8-46.1,109.8c-1,5.8-2.9,11.3-8.5,15.5c-0.2-1.5-0.5-2.7-0.5-3.9
		c0-35.2,0-70.3-0.2-105.5c0-3.9,1.5-6,4.6-8c20.5-12.8,33.9-30.7,38.4-54.8c6.7-35.5-9.8-70.5-41.3-88.1c-0.5-0.3-1.1-0.5-2.2-0.9
		c0,2.7,0,5,0,7.2c0,17.3,0.1,34.7,0,52c-0.1,15-8.6,23.6-23.5,23.7c-12.2,0.1-24.3,0.1-36.5,0c-15.1-0.1-23.7-8.5-23.7-23.5
		c-0.1-17.3,0-34.7,0-52c0-2.3,0-4.5,0-7.5c-12.6,6.4-22.2,14.9-29.8,25.6c-27.8,39.4-16.6,93.4,24.7,118.5c2.7,1.6,4.7,3.1,4.6,6.8
		c-0.1,34.5-0.1,69-0.1,103.5c0,0.6-0.1,1.2-0.2,1.9C499,829.4,498.5,829.6,498,829.8z"/>
</g>
</svg>
