<?xml version="1.0" encoding="utf-8"?>
<!-- Generator: Adobe Illustrator 22.1.0, SVG Export Plug-In . SVG Version: 6.00 Build 0)  -->
<svg version="1.1" id="Layer_1" xmlns="http://www.w3.org/2000/svg" xmlns:xlink="http://www.w3.org/1999/xlink" x="0px" y="0px"
	 viewBox="0 0 720 720" style="enable-background:new 0 0 720 720;" xml:space="preserve">
<style type="text/css">
	.st0{fill:#6d5dff;}
</style>
<g>
	<path class="st0" d="M11,361.4C11,169.1,167,13.1,359.4,13C551.8,12.9,708.1,169.1,708,361.6C707.9,554.2,551.6,710.3,359.2,710
		C166.7,709.7,11,553.8,11,361.4z M357.3,525.6c0,0.1,0,0.2,0,0.3c10.4,0,20.9,0.1,31.3,0c23.9-0.3,31.9-6.8,36.9-30.3
		c6-28.3,15.8-55.1,31-79.7c6.6-10.7,14.5-20.7,20.3-31.8c25-47.9,10.8-112.8-32.2-148.6C415.1,211,380.7,203,343,206.2
		c-95.2,7.9-146.4,118.3-91.8,194.8c21,29.5,34.9,62.2,41.5,97.9c3.4,18.1,13.5,26.4,31.9,26.7C335.5,525.8,346.4,525.6,357.3,525.6
		z M309.6,544.7c5,6.8,11.3,9.3,19.5,9.2c20-0.4,40.1-0.4,60.2,0c8.6,0.2,13.9-4.1,18.4-10c-4-7.8-10.2-10.2-18.6-9.9
		c-19.3,0.5-38.6,0.6-57.9,0c-9.4-0.3-16.4,2.3-21.3,10.2C309.9,544.3,309.8,544.4,309.6,544.7z M316.3,572c4.8,5.3,10.4,8.4,18,8.3
		c16.7-0.3,33.4-0.3,50.1,0c7.5,0.1,13-2.5,16.9-8.8c-3.4-6.2-8.3-9.2-15.9-9c-17.2,0.5-34.3,0.5-51.5,0
		C325.8,562.3,320.5,565.6,316.3,572z M251.5,217.1c-1.6-3-2.4-6-4.3-7.9c-12.4-12.8-25-25.3-37.6-37.9c-1.3-1.3-2.9-2.4-4.6-3
		c-1.5-0.5-3.6-0.5-4.9,0.2c-6.6,3.7-7.6,10.2-2.3,16c4.2,4.7,8.5,9.2,13,13.7c8,8,16.2,15.9,24.4,23.8c3.7,3.5,8.1,2.6,12.1,0.8
		C249,222.1,249.9,219.4,251.5,217.1z M196.8,494.7c9.2,1.2,16.9-1.2,23-8.4c2.1-2.4,4.8-4.3,6.9-6.7c8.1-8.9,16.3-17.8,24.1-27
		c2.4-2.8-1.1-10-4.8-10.2c-4.8-0.3-9.5,0.2-13.2,3.9c-9.2,9.2-18.3,18.5-27.8,27.4C199,479.5,195.9,486.1,196.8,494.7z M514.6,168
		c-2.1,1.1-4.4,1.9-6.2,3.3c-2.5,2-4.7,4.3-7,6.6c-10.5,10.5-21,21-31.4,31.6c-3.5,3.6-3.8,10.7-0.9,13.4c4.1,3.9,8.8,3.7,13.3-0.9
		c12.9-13.1,25.7-26.3,38.7-39.3c3.3-3.3,1.8-6.4,0.6-9.7C520.5,170,518.4,168.3,514.6,168z M358.7,176.9c6.3-5.1,10.5-11.3,10.2-20
		c-0.3-11.5-0.4-23-0.1-34.4c0.3-8.5-3.4-14.2-11.7-18.8c-2.5,3.8-6.9,7.6-7.2,11.7c-1,14.2-0.3,28.5-0.8,42.7
		C348.9,166.2,351.7,172.3,358.7,176.9z M521,494.5c1.3-8.3-1.8-14.5-7.6-19.8c-5.5-5.1-10.4-10.8-15.8-16
		c-6.2-5.9-12.6-11.6-19.2-17c-3-2.4-9.8,0.7-10.3,4.5c-0.6,4.5-0.2,8.8,3.3,12.3c10.3,10.3,20.8,20.3,30.7,31
		C507.6,495.6,513.8,496.6,521,494.5z M588.4,333.4c-3.9-3.3-6-9.2-12.4-9.2c-14.6-0.1-29.1,0.2-43.7-0.4
		c-8.4-0.4-13.5,3.5-17.4,9.9c4.9,6,10.9,9.5,19,9.3c11.6-0.3,23.3-0.3,34.9,0C577.2,343.3,583.3,339.9,588.4,333.4z M130.1,332.9
		c6.2,8.8,14.8,10.8,24.7,10.3c8.5-0.5,17.1-0.4,25.7,0c9.4,0.4,17-2.6,23.1-11.7c-4.6-2.5-9-6.7-13.7-7c-13.9-1-27.8-0.1-41.7-0.7
		C140.1,323.5,134.4,326.6,130.1,332.9z M388.9,589.7c-20.6,0-40.8,0-61.1,0c0.6,10.6,14.4,19.5,30.4,20
		C372.7,610.2,387.5,600.7,388.9,589.7z"/>
	<path class="st0" d="M319.5,500.8c-2.2-3.6-4.8-7-6.4-10.9c-4.8-11.8-9-23.8-13.6-35.6c-9.1-23-21-44.6-33.8-65.8
		c-14.1-23.5-21.2-48.9-15.7-76.2c8.6-43.1,35.4-70.6,76.9-83.3c59.2-18.1,113.6,16.6,133.1,56.7c13.4,27.6,11.4,55.3,0.7,83
		c-2.8,7.2-6.6,14.2-10.8,20.7c-20.4,31.1-35.8,64.2-42.4,101.1c-1,5.3-2.7,10.4-7.8,14.3c-0.2-1.4-0.4-2.5-0.4-3.6
		c0-32.4,0-64.8-0.2-97.1c0-3.6,1.4-5.6,4.3-7.4c18.9-11.8,31.2-28.3,35.4-50.4c6.2-32.7-9-64.9-38-81.1c-0.5-0.3-1.1-0.4-2.1-0.9
		c0,2.5,0,4.6,0,6.7c0,16,0,31.9,0,47.9c-0.1,13.9-7.9,21.8-21.7,21.8c-11.2,0.1-22.4,0.1-33.6,0c-13.9-0.1-21.8-7.9-21.9-21.7
		c-0.1-16,0-31.9,0-47.9c0-2.1,0-4.2,0-6.9c-11.6,5.9-20.4,13.7-27.4,23.6c-25.6,36.3-15.2,86,22.7,109.1c2.5,1.5,4.3,2.9,4.3,6.3
		c-0.1,31.8-0.1,63.5-0.1,95.3c0,0.6-0.1,1.1-0.1,1.7C320.4,500.4,319.9,500.6,319.5,500.8z"/>
</g>
</svg>
