<?xml version="1.0" encoding="utf-8"?>
<!-- Generator: Adobe Illustrator 22.1.0, SVG Export Plug-In . SVG Version: 6.00 Build 0)  -->
<svg version="1.1" id="Layer_1" xmlns="http://www.w3.org/2000/svg" xmlns:xlink="http://www.w3.org/1999/xlink" x="0px" y="0px"
	 viewBox="0 0 800 1330" style="enable-background:new 0 0 800 1330;" xml:space="preserve">
<style type="text/css">
	.st0{fill:#18143b;}
</style>
<g>
	<path class="st0" d="M16,664.9C16,453,187.9,281.1,399.9,281S784.1,453,784,665.1c-0.1,212.2-172.3,384.2-384.3,383.9
		C187.6,1048.7,16,876.9,16,664.9z M397.6,845.8c0,0.1,0,0.2,0,0.3c11.5,0,23,0.1,34.5,0c26.3-0.3,35.1-7.5,40.7-33.4
		c6.6-31.2,17.4-60.7,34.2-87.8c7.3-11.8,16-22.8,22.4-35c27.5-52.8,11.9-124.3-35.5-163.7c-32.5-27-70.4-35.8-111.9-32.3
		c-104.9,8.7-161.3,130.4-101.2,214.6c23.1,32.5,38.5,68.5,45.7,107.9c3.7,19.9,14.9,29.1,35.1,29.4
		C373.6,846,385.6,845.8,397.6,845.8z M345,866.9c5.5,7.5,12.5,10.2,21.5,10.1c22-0.4,44.2-0.4,66.3,0c9.5,0.2,15.3-4.5,20.3-11
		c-4.4-8.6-11.2-11.2-20.5-10.9c-21.3,0.6-42.5,0.7-63.8,0c-10.4-0.3-18.1,2.5-23.5,11.2C345.3,866.4,345.2,866.5,345,866.9z
		 M352.4,896.9c5.3,5.8,11.5,9.3,19.8,9.1c18.4-0.3,36.8-0.3,55.2,0c8.3,0.1,14.3-2.8,18.6-9.7c-3.7-6.8-9.1-10.1-17.5-9.9
		c-19,0.6-37.8,0.6-56.7,0C362.9,886.3,357,889.9,352.4,896.9z M281,505.9c-1.8-3.3-2.6-6.6-4.7-8.7c-13.7-14.1-27.5-27.9-41.4-41.8
		c-1.4-1.4-3.2-2.6-5.1-3.3c-1.7-0.6-4-0.6-5.4,0.2c-7.3,4.1-8.4,11.2-2.5,17.6c4.6,5.2,9.4,10.1,14.3,15.1
		c8.8,8.8,17.9,17.5,26.9,26.2c4.1,3.9,8.9,2.9,13.3,0.9C278.2,511.4,279.2,508.4,281,505.9z M220.7,811.8
		c10.1,1.3,18.6-1.3,25.3-9.3c2.3-2.6,5.3-4.7,7.6-7.4c8.9-9.8,18-19.6,26.6-29.8c2.6-3.1-1.2-11-5.3-11.2
		c-5.3-0.3-10.5,0.2-14.5,4.3c-10.1,10.1-20.2,20.4-30.6,30.2C223.2,795,219.7,802.3,220.7,811.8z M570.9,451.8
		c-2.3,1.2-4.8,2.1-6.8,3.6c-2.8,2.2-5.2,4.7-7.7,7.3c-11.6,11.6-23.1,23.1-34.6,34.8c-3.9,4-4.2,11.8-1,14.8
		c4.5,4.3,9.7,4.1,14.7-1c14.2-14.4,28.3-29,42.6-43.3c3.6-3.6,2-7.1,0.7-10.7C577.4,454,575.1,452.1,570.9,451.8z M399.1,461.6
		c6.9-5.6,11.6-12.5,11.2-22c-0.3-12.7-0.4-25.3-0.1-37.9c0.3-9.4-3.7-15.6-12.9-20.7c-2.8,4.2-7.6,8.4-7.9,12.9
		c-1.1,15.6-0.3,31.4-0.9,47C388.3,449.8,391.4,456.5,399.1,461.6z M578,811.5c1.4-9.1-2-16-8.4-21.8c-6.1-5.6-11.5-11.9-17.4-17.6
		c-6.8-6.5-13.9-12.8-21.2-18.7c-3.3-2.6-10.8,0.8-11.3,5c-0.7,5-0.2,9.7,3.6,13.6c11.3,11.3,22.9,22.4,33.8,34.2
		C563.2,812.8,570,813.9,578,811.5z M652.2,634c-4.3-3.6-6.6-10.1-13.7-10.1c-16.1-0.1-32.1,0.2-48.2-0.4
		c-9.3-0.4-14.9,3.9-19.2,10.9c5.4,6.6,12,10.5,20.9,10.2c12.8-0.3,25.7-0.3,38.5,0C639.9,644.9,646.6,641.2,652.2,634z
		 M147.2,633.5c6.8,9.7,16.3,11.9,27.2,11.3c9.4-0.6,18.8-0.4,28.3,0c10.4,0.4,18.7-2.9,25.5-12.9c-5.1-2.8-9.9-7.4-15.1-7.7
		c-15.3-1.1-30.6-0.1-45.9-0.8C158.3,623.1,152,626.5,147.2,633.5z M432.4,916.4c-22.7,0-45,0-67.3,0c0.7,11.7,15.9,21.5,33.5,22
		C414.5,939,430.9,928.6,432.4,916.4z"/>
	<path class="st0" d="M355.9,818.5c-2.4-4-5.3-7.7-7.1-12c-5.3-13-9.9-26.2-15-39.2c-10-25.3-23.1-49.1-37.2-72.5
		c-15.5-25.9-23.4-53.9-17.3-84c9.5-47.5,39-77.8,84.7-91.8c65.2-19.9,125.2,18.3,146.7,62.5c14.8,30.4,12.6,60.9,0.8,91.5
		c-3.1,7.9-7.3,15.6-11.9,22.8c-22.5,34.3-39.4,70.7-46.7,111.4c-1.1,5.8-3,11.5-8.6,15.8c-0.2-1.5-0.4-2.8-0.4-4
		c0-35.7,0-71.4-0.2-107c0-4,1.5-6.2,4.7-8.2c20.8-13,34.4-31.2,39-55.5c6.8-36-9.9-71.5-41.9-89.4c-0.6-0.3-1.2-0.4-2.3-1
		c0,2.8,0,5.1,0,7.4c0,17.6,0,35.1,0,52.8c-0.1,15.3-8.7,24-23.9,24c-12.3,0.1-24.7,0.1-37,0c-15.3-0.1-24-8.7-24.1-23.9
		c-0.1-17.6,0-35.1,0-52.8c0-2.3,0-4.6,0-7.6c-12.8,6.5-22.5,15.1-30.2,26c-28.2,40-16.7,94.8,25,120.2c2.8,1.7,4.7,3.2,4.7,6.9
		c-0.1,35-0.1,70-0.1,105c0,0.7-0.1,1.2-0.1,1.9C356.9,818,356.4,818.3,355.9,818.5z"/>
</g>
</svg>
