<?xml version="1.0" encoding="utf-8"?>
<!-- Generator: Adobe Illustrator 22.1.0, SVG Export Plug-In . SVG Version: 6.00 Build 0)  -->
<svg version="1.1" id="Layer_1" xmlns="http://www.w3.org/2000/svg" xmlns:xlink="http://www.w3.org/1999/xlink" x="0px" y="0px"
	 viewBox="0 0 1330 800" style="enable-background:new 0 0 1330 800;" xml:space="preserve">
<style type="text/css">
	.st0{fill:#525252;}
</style>
<g>
	<path class="st0" d="M273,399.9C273,183.6,448.5,8.1,664.9,8c216.4-0.1,392.2,175.6,392.1,392.1
		c-0.1,216.6-175.9,392.2-392.3,391.9C448.1,791.7,273,616.3,273,399.9z M662.5,584.6c0,0.1,0,0.2,0,0.3c11.7,0,23.5,0.1,35.2,0
		c26.9-0.3,35.9-7.6,41.5-34.1c6.7-31.8,17.8-62,34.9-89.6c7.4-12,16.3-23.3,22.8-35.8c28.1-53.9,12.1-126.9-36.2-167.1
		c-33.2-27.6-71.9-36.6-114.3-33c-107.1,8.9-164.7,133.1-103.3,219.1c23.6,33.2,39.3,70,46.7,110.1c3.8,20.4,15.2,29.7,35.9,30
		C638,584.8,650.3,584.6,662.5,584.6z M608.9,606.1c5.6,7.6,12.7,10.5,21.9,10.3c22.5-0.4,45.1-0.4,67.7,0
		c9.7,0.2,15.6-4.6,20.7-11.2c-4.5-8.8-11.5-11.5-20.9-11.1c-21.7,0.6-43.4,0.7-65.1,0c-10.6-0.3-18.4,2.6-24,11.5
		C609.2,605.6,609.1,605.7,608.9,606.1z M616.4,636.8c5.4,6,11.7,9.4,20.2,9.3c18.8-0.3,37.6-0.3,56.4,0c8.4,0.1,14.6-2.8,19-9.9
		c-3.8-7-9.3-10.3-17.9-10.1c-19.3,0.6-38.6,0.6-57.9,0C627.1,625.9,621.1,629.6,616.4,636.8z M543.5,237.6
		c-1.8-3.4-2.7-6.7-4.8-8.9c-13.9-14.4-28.1-28.5-42.3-42.6c-1.5-1.5-3.3-2.7-5.2-3.4c-1.7-0.6-4-0.6-5.5,0.2
		c-7.4,4.2-8.5,11.5-2.6,18c4.7,5.3,9.6,10.3,14.6,15.4c9,9,18.2,17.9,27.4,26.8c4.2,3.9,9.1,2.9,13.6,0.9
		C540.7,243.2,541.7,240.2,543.5,237.6z M482,549.8c10.3,1.3,19-1.3,25.9-9.4c2.4-2.7,5.4-4.8,7.8-7.5c9.1-10,18.3-20,27.1-30.4
		c2.7-3.1-1.2-11.2-5.4-11.5c-5.4-0.3-10.7,0.2-14.8,4.4c-10.3,10.3-20.6,20.8-31.3,30.8C484.5,532.7,481,540.2,482,549.8z
		 M839.5,182.3c-2.4,1.2-4.9,2.1-7,3.7c-2.8,2.2-5.3,4.8-7.9,7.4c-11.8,11.8-23.6,23.6-35.3,35.5c-3.9,4-4.3,12-1,15.1
		c4.6,4.4,9.9,4.2,15-1c14.5-14.7,28.9-29.6,43.5-44.2c3.7-3.7,2-7.2,0.7-10.9C846.1,184.6,843.7,182.7,839.5,182.3z M664.1,192.4
		c7.1-5.7,11.8-12.7,11.5-22.5c-0.3-12.9-0.4-25.9-0.1-38.7c0.3-9.6-3.8-16-13.2-21.1c-2.8,4.3-7.8,8.5-8.1,13.2
		c-1.1,16-0.3,32.1-0.9,48C653.1,180.3,656.2,187.2,664.1,192.4z M846.7,549.6c1.5-9.3-2-16.3-8.5-22.3c-6.2-5.7-11.7-12.1-17.8-18
		c-7-6.6-14.2-13-21.6-19.1c-3.4-2.7-11,0.8-11.6,5.1c-0.7,5.1-0.2,9.9,3.7,13.8c11.6,11.6,23.4,22.8,34.5,34.9
		C831.6,550.8,838.6,552,846.7,549.6z M922.5,368.4c-4.4-3.7-6.7-10.3-13.9-10.3c-16.4-0.1-32.7,0.2-49.2-0.4
		c-9.4-0.4-15.2,3.9-19.6,11.1c5.5,6.7,12.3,10.7,21.4,10.5c13-0.3,26.2-0.3,39.3,0C909.9,379.5,916.7,375.7,922.5,368.4z
		 M407,367.8c7,9.9,16.6,12.1,27.8,11.6c9.6-0.6,19.2-0.4,28.9,0c10.6,0.4,19.1-2.9,26-13.2c-5.2-2.8-10.1-7.5-15.4-7.9
		c-15.6-1.1-31.3-0.1-46.9-0.8C418.2,357.3,411.8,360.7,407,367.8z M698.1,656.7c-23.2,0-45.9,0-68.7,0
		c0.7,11.9,16.2,21.9,34.2,22.5C679.8,679.7,696.5,669.1,698.1,656.7z"/>
	<path class="st0" d="M620,556.7c-2.5-4-5.4-7.9-7.2-12.3c-5.4-13.3-10.1-26.8-15.3-40c-10.2-25.9-23.6-50.2-38-74
		c-15.9-26.4-23.8-55-17.7-85.7c9.7-48.5,39.8-79.4,86.5-93.7c66.6-20.4,127.8,18.7,149.7,63.8c15.1,31,12.8,62.2,0.8,93.4
		c-3.1,8.1-7.4,16-12.1,23.3c-22.9,35-40.3,72.2-47.7,113.7c-1.1,6-3,11.7-8.8,16.1c-0.2-1.6-0.4-2.8-0.4-4c0-36.4,0-72.9-0.2-109.2
		c0-4,1.6-6.3,4.8-8.3c21.3-13.3,35.1-31.8,39.8-56.7c7-36.8-10.1-73-42.7-91.2c-0.6-0.3-1.2-0.4-2.4-1c0,2.8,0,5.2,0,7.5
		c0,18,0,35.9,0,53.9c-0.1,15.6-8.9,24.5-24.4,24.5c-12.6,0.1-25.2,0.1-37.8,0c-15.6-0.1-24.5-8.9-24.6-24.4c-0.1-18,0-35.9,0-53.9
		c0-2.4,0-4.7,0-7.8c-13,6.6-22.9,15.4-30.8,26.5c-28.8,40.8-17.1,96.7,25.5,122.7c2.8,1.7,4.8,3.3,4.8,7.1
		c-0.1,35.8-0.1,71.4-0.1,107.2c0,0.7-0.1,1.2-0.1,1.9C621,556.2,620.5,556.5,620,556.7z"/>
</g>
</svg>
